<?xml version="1.0" encoding="UTF-8"?>
<svg width="100px" height="100px" viewBox="0 0 100 100" version="1.1" xmlns="http://www.w3.org/2000/svg" xmlns:xlink="http://www.w3.org/1999/xlink">
    <title>skech_knit_mesh@1.5x</title>
    <g id="skech_knit_mesh" stroke="none" stroke-width="1" fill="none" fill-rule="evenodd">
        <g transform="translate(10.000000, 5.000000)" id="Path">
            <path d="M17.1050802,0.396117647 C18.4854902,-0.276081996 20.0624586,0.139541444 20.6491328,1.32639394 C21.0422496,2.14413681 20.8561943,3.1104238 20.256016,3.85614528 L60.9556038,90.1017602 L17.925824,5.0174902 C16.959537,5.04149733 16.0802758,4.57785963 15.6751555,3.75861631 C15.0884813,2.57326426 15.7366738,1.05781417 17.1050802,0.396117647 Z" stroke="#999999" stroke-width="0.684203209" fill="#999999" fill-rule="nonzero" stroke-linecap="round" stroke-linejoin="round"></path>
            <path d="M0.705209447,17.9273244 C1.65949287,16.7269679 3.25596702,16.4103739 4.30627897,17.2296172 C5.02799332,17.7922843 5.27256595,18.7465677 5.05650178,19.6873471 L79.1770156,79.6616595 L3.45102496,21.7414572 C2.59577094,22.1810878 1.60547683,22.1450771 0.883762478,21.58241 C-0.1545459,20.7631667 -0.228067736,19.12468 0.712711676,17.9273244 L0.705209447,17.9273244 Z" stroke="#999999" stroke-width="0.684203209" fill="#999999" fill-rule="nonzero" stroke-linecap="round" stroke-linejoin="round"></path>
            <path d="M13.1706837,47.3885744 C13.1404419,39.7447542 16.1637664,32.4052723 21.5692291,27.0006549 C26.9746918,21.5960374 34.3146463,18.5738606 41.9584617,18.6052795 C57.9502112,18.6052795 70.7445111,31.4013262 70.7445111,47.3945762 C70.7445111,63.3878262 57.9502112,76.1776248 41.9584617,76.1776248 C25.9667121,76.1776248 13.1706837,63.3833249 13.1706837,47.3885744 Z" stroke="#F67EAD" stroke-width="2.75031684" fill="#FFFFFF" fill-rule="nonzero" stroke-linecap="round" stroke-linejoin="round"></path>
            <path d="M34.1546439,19.7113543 C31.5093583,43.7094817 58.8054652,70.7625165 61.4687562,69.0204991" stroke="#F67EAD" stroke-width="2.75031684" stroke-linecap="round" stroke-linejoin="round"></path>
            <path d="M27.9593039,22.6207184 C25.3320236,46.6188458 52.7061537,74.9922727 55.3664439,73.2442536" stroke="#F67EAD" stroke-width="2.75031684" stroke-linecap="round" stroke-linejoin="round"></path>
            <path d="M22.838283,25.9577094 C20.2110027,49.9558369 43.2128342,73.1332206 47.4020784,75.9705633" stroke="#F67EAD" stroke-width="2.75031684" stroke-linecap="round" stroke-linejoin="round"></path>
            <path d="M17.2656279,32.6947103 C17.9138204,57.1519742 37.8217331,76.336672 40.2539554,76.4221974" stroke="#F67EAD" stroke-width="2.75031684" stroke-linecap="round" stroke-linejoin="round"></path>
            <path d="M34.7908329,30.5550749 C36.2912785,24.4542629 38.9455668,21.4113592 42.0980031,18.5995241" stroke="#F67EAD" stroke-width="2.75031684"></path>
            <path d="M37.0760116,38.1473298 C37.1975477,35.2739764 40.0694006,26.5578877 47.74418,19.1621912" stroke="#F67EAD" stroke-width="2.75031684"></path>
            <path d="M39.9238574,44.4416992 C40.7416003,41.1407188 47.8672166,25.1399666 53.7699697,21.057254" stroke="#F67EAD" stroke-width="2.75031684"></path>
            <path d="M42.8197175,49.5147059 C46.9384407,39.9418627 52.2905303,30.565578 59.6487157,24.2096903" stroke="#F67EAD" stroke-width="2.75031684"></path>
            <path d="M66.1861573,31.5213619 C66.7863356,33.0488155 58.4138489,33.6594969 53.4158645,31.0922344" stroke="#F67EAD" stroke-width="2.75031684"></path>
            <path d="M69.535152,38.3663948 C64.9692959,39.686787 52.4870887,38.8930512 49.9648396,35.7391145" stroke="#F67EAD" stroke-width="2.75031684"></path>
            <path d="M70.9035584,44.956352 C61.2361872,46.7568868 47.8432094,43.2683507 47.3045495,40.2494541" stroke="#F67EAD" stroke-width="2.75031684"></path>
            <path d="M70.5614568,52.6656417 C61.4447491,53.7279572 45.4349942,47.9467402 44.5302255,45.7335829" stroke="#F67EAD" stroke-width="2.75031684"></path>
            <path d="M69.1195285,57.8646858 C58.9149978,59.4056435 44.8633244,53.9410205 42.8197175,49.5147059" stroke="#F67EAD" stroke-width="2.75031684"></path>
            <path d="M66.4307299,63.1687611 C57.2780116,64.4531426 52.8531974,61.1161515 51.8629033,61.5182709" stroke="#F67EAD" stroke-width="2.75031684"></path>
            <path d="M63.5348699,28.1108489 C61.5422781,28.9661029 56.6538262,28.6240013 56.5562972,27.1805726" stroke="#F67EAD" stroke-width="2.06611364"></path>
            <path d="M31.9309835,68.8179389 C28.8025544,68.4398266 25.6861288,71.838336 27.555684,72.5345428" stroke="#F67EAD" stroke-width="2.06611364"></path>
            <path d="M28.5579817,64.3811212 C25.3185196,63.5498743 21.9095071,69.5036426 23.2899171,69.5036426" stroke="#F67EAD" stroke-width="2.06611364"></path>
            <path d="M25.5630922,59.7177362 C19.9904372,61.1971756 19.1351832,64.6932139 19.3917594,65.4389354" stroke="#F67EAD" stroke-width="2.06611364"></path>
            <path d="M23.0828556,55.1263725 C20.2230062,55.983127 17.6317366,57.3275263 16.0562687,60.1138538" stroke="#F67EAD" stroke-width="2.06611364"></path>
            <path d="M21.1637857,50.7990873 C16.9625379,51.6543414 15.0899817,54.3326368 14.1251952,54.9073075" stroke="#F67EAD" stroke-width="2.06611364"></path>
            <path d="M19.6003213,46.3982803 C15.4080762,46.8139037 12.2796471,51.0676671 13.3059519,50.2739314" stroke="#F67EAD" stroke-width="2.06611364" stroke-linecap="round" stroke-linejoin="round"></path>
            <path d="M18.3054367,41.4122995 C15.9047237,42.1085062 13.8206047,42.9277496 13.3689706,44.2721488" stroke="#F67EAD" stroke-width="2.06611364"></path>
        </g>
        <rect id="viewBox" x="0" y="0" width="100" height="100"></rect>
    </g>
</svg>